<svg width="400" height="400" viewBox="0 0 400 400" fill="none" xmlns="http://www.w3.org/2000/svg">
<rect x="0" y="0" width="400" height="400" fill="#20183B"/>
<path d="M233.03 103.028C227.978 104.248 223.796 105.467 223.622 105.554C223.361 105.903 224.493 111.217 224.929 111.478C225.103 111.565 227.194 111.129 229.546 110.52C231.898 109.823 233.901 109.387 233.988 109.474C234.25 109.649 229.284 116.704 225.277 121.931C220.573 128.029 206.984 141.792 201.235 146.322C181.2 162.175 158.203 172.28 134.161 175.852C129.893 176.549 117.087 177.507 113.429 177.594C110.293 177.594 108.986 181.862 111.425 183.866C112.906 185.085 116.042 185.172 125.45 184.388C170.137 180.643 210.73 156.688 236.863 118.708C238.692 116.008 240.26 113.656 240.521 113.481C240.696 113.22 241.393 115.136 242.002 117.575C242.612 120.015 243.135 122.192 243.222 122.192C243.483 122.454 248.797 121.147 249.058 120.799C249.232 120.537 248.1 115.92 246.706 110.433C244.441 101.547 244.093 100.502 243.135 100.589C242.525 100.676 237.995 101.722 233.03 103.028Z" fill="white"/>
<path d="M268.484 128.377C265.957 129.161 262.996 132.471 262.299 135.085C261.602 137.959 261.515 286.481 262.212 289.007C262.821 291.272 264.477 293.536 266.48 294.93L268.222 296.063H284.25C300.279 296.063 300.279 296.063 301.846 294.93C302.63 294.32 303.937 293.014 304.721 292.056L306.028 290.313L306.202 212.438L306.289 134.649L304.895 132.384C303.937 130.99 302.63 129.684 301.324 128.987C299.32 127.942 298.885 127.854 284.686 127.767C274.93 127.854 269.703 127.942 268.484 128.377ZM298.449 136.043C298.885 136.478 299.059 153.987 299.059 212.089C299.059 280.035 298.972 287.613 298.275 288.31C297.665 289.007 295.749 289.094 284.512 289.094C276.411 289.094 271.01 288.92 270.487 288.571C269.529 288.049 269.529 286.655 269.529 212.351C269.529 154.074 269.703 136.478 270.139 136.043C270.836 135.259 297.578 135.259 298.449 136.043Z" fill="white"/>
<path d="M211.427 178.639C209.162 179.772 207.42 181.862 206.549 184.388C206.2 185.608 206.026 200.242 206.026 237.177V288.31L207.159 290.836C207.943 292.578 208.988 293.711 210.382 294.756L212.385 296.15L227.803 296.324C242.264 296.498 243.396 296.411 245.051 295.54C247.403 294.408 248.797 292.84 249.755 290.575C250.365 289.007 250.452 282.648 250.452 237.177C250.452 191.706 250.365 185.347 249.755 183.779C248.797 181.514 247.316 179.946 245.051 178.813C243.396 178.029 242.089 177.855 228.326 177.855C214.214 177.681 213.43 177.681 211.427 178.639ZM242.438 185.695C243.222 186.392 243.309 188.657 243.309 236.915C243.309 285.348 243.222 287.439 242.438 288.223C241.654 288.92 240.086 289.007 227.978 288.92L214.476 288.745L213.866 287.526C212.908 285.697 213.169 186.74 214.127 185.608C214.737 184.911 216.305 184.824 228.152 184.824C239.912 184.911 241.654 184.998 242.438 185.695Z" fill="white"/>
<path d="M157.419 215.051C156.461 215.312 154.806 216.27 153.761 217.142C150.102 220.277 150.189 218.797 150.363 256.428L150.538 289.878L152.018 291.969C152.802 293.101 154.37 294.495 155.416 295.104C157.332 296.15 157.681 296.237 172.576 296.237C187.472 296.237 187.907 296.15 189.737 295.104C190.782 294.495 192.263 293.101 193.134 291.969L194.615 289.878L194.789 256.428C194.963 218.797 195.05 220.277 191.392 217.142C190.172 216.096 188.517 215.225 187.036 214.964C184.075 214.354 159.945 214.354 157.419 215.051ZM186.688 223.065C187.472 223.762 187.559 225.417 187.559 255.383C187.559 283.17 187.472 287.09 186.775 288.049C186.078 289.094 185.991 289.094 172.489 289.094C159.074 289.094 158.987 289.094 158.203 288.049C157.506 287.09 157.419 283.17 157.419 255.47C157.419 226.898 157.506 223.936 158.203 223.065C158.9 222.281 160.032 222.194 172.315 222.194C184.162 222.194 185.904 222.281 186.688 223.065Z" fill="white"/>
<path d="M108.289 245.887C105.415 246.584 102.714 248.849 101.495 251.637C100.45 254.076 100.45 288.048 101.408 290.488C102.192 292.317 105.066 295.104 106.983 295.888C107.593 296.15 114.823 296.324 122.924 296.324C138.952 296.324 139.562 296.237 142.175 293.623C145.224 290.575 145.137 291.097 145.137 271.149V252.943L143.743 250.679C142.872 249.198 141.652 247.891 140.084 247.02L137.82 245.626L123.795 245.539C116.216 245.539 109.073 245.713 108.289 245.887ZM137.123 253.814C137.558 254.25 137.732 258.78 137.732 271.236C137.732 287.352 137.645 288.136 136.774 288.571C136.164 288.832 130.851 289.094 122.75 289.094C111.513 289.094 109.596 289.007 108.899 288.31C108.202 287.7 108.115 285.435 108.115 270.975C108.115 258.693 108.289 254.25 108.725 253.814C109.509 252.943 136.252 252.943 137.123 253.814Z" fill="white"/>
</svg>
