<svg width="1263" height="146" fill="none" xmlns="http://www.w3.org/2000/svg">
  <path d="M87.598 97.46h26.855c-.716 9.506-3.353 17.937-7.91 25.294-4.557 7.292-10.905 13.021-19.043 17.187-8.138 4.167-18.001 6.25-29.59 6.25-8.92 0-16.96-1.562-24.12-4.687-7.097-3.19-13.184-7.715-18.263-13.574-5.013-5.925-8.854-13.021-11.523-21.289C1.334 98.307 0 88.965 0 78.613v-10.84C0 57.422 1.367 48.08 4.102 39.746c2.734-8.333 6.64-15.43 11.718-21.289 5.143-5.924 11.296-10.482 18.457-13.672C41.504 1.595 49.577 0 58.497 0 70.084 0 79.882 2.148 87.89 6.445c8.007 4.232 14.225 10.059 18.652 17.48 4.427 7.423 7.096 15.951 8.008 25.587H87.695c-.52-5.99-1.823-11.068-3.906-15.235-2.018-4.166-5.078-7.324-9.18-9.472-4.036-2.214-9.407-3.32-16.113-3.32-5.208 0-9.798.976-13.77 2.93-3.906 1.952-7.16 4.882-9.765 8.788-2.604 3.841-4.557 8.659-5.86 14.453-1.302 5.73-1.953 12.37-1.953 19.922v11.035c0 7.227.586 13.705 1.758 19.434 1.172 5.729 2.995 10.579 5.469 14.551 2.474 3.971 5.664 6.998 9.57 9.082 3.907 2.083 8.562 3.125 13.965 3.125 6.576 0 11.914-1.042 16.016-3.125 4.166-2.084 7.324-5.144 9.472-9.18 2.214-4.036 3.614-9.049 4.2-15.04ZM211.797 23.633 171.27 144.238h-28.418L195.977 2.051h18.164l-2.344 21.582Zm33.887 120.605L204.961 23.633 202.52 2.05h18.261l53.418 142.187h-28.515Zm-1.856-52.832v21.192h-76.269V91.406h76.269ZM363.535 92.383h-36.621V71.289h36.621c5.99 0 10.84-.977 14.551-2.93 3.776-2.018 6.543-4.752 8.301-8.203 1.758-3.515 2.636-7.52 2.636-12.011 0-4.362-.878-8.431-2.636-12.208-1.758-3.776-4.525-6.835-8.301-9.18-3.711-2.343-8.561-3.515-14.551-3.515h-27.832v120.996h-26.855V2.051h54.687c11.068 0 20.508 1.985 28.32 5.957 7.878 3.906 13.868 9.342 17.969 16.308 4.167 6.901 6.25 14.78 6.25 23.633 0 9.18-2.083 17.09-6.25 23.73-4.101 6.641-10.091 11.752-17.969 15.333-7.812 3.58-17.252 5.37-28.32 5.37ZM485.781 2.05v142.188h-26.855V2.051h26.855ZM592.891 2.05v142.188h-26.758V2.051h26.758Zm44.14 0v21.192H522.48V2.051h114.551ZM721.484 23.633l-40.527 120.605h-28.418L705.664 2.051h18.164l-2.344 21.582Zm33.887 120.605L714.648 23.633 712.207 2.05h18.262l53.418 142.187h-28.516Zm-1.855-52.832v21.192h-76.27V91.406h76.27ZM908.77 123.145v21.093h-71.485v-21.093h71.485ZM845.391 2.051v142.187h-26.856V2.051h26.856ZM975.352 2.05v142.188h-26.856V2.051h26.856ZM1051.21 2.05v142.188h-26.85V2.051h26.85Zm57.33 61.427v21.191h-64.36V63.477h64.36Zm7.51-61.426v21.191h-71.87V2.051h71.87ZM1170.92 2.05l31.25 66.31 31.44-66.31h29.5l-47.27 90.138v52.05h-27.25v-52.05L1141.23 2.05h29.69Z" fill="#20183B"/>
</svg>